# Blender 4.0.2
# www.blender.org
mtllib landCrack.mtl
o Plane
v -1.000000 0.000000 1.000000
v -1.000000 0.425263 1.000000
v -1.000000 0.425263 -0.719304
v 1.000000 0.000000 -1.000000
v 0.796765 0.000000 1.000000
v -1.000000 0.000000 -0.719304
v -0.233796 0.000000 0.166515
v 1.000000 0.000000 0.814958
v -0.806973 0.000000 -1.000000
v 0.015159 0.000000 -0.001385
v 1.000000 0.425263 0.814958
v 1.000000 0.425263 -1.000000
v 0.796765 0.425263 1.000000
v -0.233796 0.425263 0.166515
v -0.806973 0.425263 -1.000000
v 0.015159 0.425263 -0.001385
vn -0.0000 -1.0000 -0.0000
vn -0.0000 1.0000 -0.0000
vn 0.7563 -0.0000 -0.6542
vn -0.0000 -0.0000 1.0000
vn 1.0000 -0.0000 -0.0000
vn -0.6382 -0.0000 0.7699
vn -1.0000 -0.0000 -0.0000
vn -0.0000 -0.0000 -1.0000
vn 0.6288 -0.0000 -0.7775
vn -0.7720 -0.0000 0.6356
vt 0.000000 0.000000
vt 0.000000 0.859652
vt 0.383102 0.416742
vt 0.898382 0.000000
vt 0.096513 1.000000
vt 1.000000 1.000000
vt 1.000000 0.092521
vt 0.507580 0.500693
s 0
f 1/1/1 6/2/1 7/3/1 5/4/1
f 2/1/2 13/4/2 14/3/2 3/2/2
f 9/5/1 4/6/1 8/7/1 10/8/1
f 15/5/2 16/8/2 11/7/2 12/6/2
f 7/3/3 6/2/3 3/2/3 14/3/3
f 1/1/4 5/4/4 13/4/4 2/1/4
f 8/7/5 4/6/5 12/6/5 11/7/5
f 10/8/6 8/7/6 11/7/6 16/8/6
f 6/2/7 1/1/7 2/1/7 3/2/7
f 4/6/8 9/5/8 15/5/8 12/6/8
f 5/4/9 7/3/9 14/3/9 13/4/9
f 9/5/10 10/8/10 16/8/10 15/5/10
