# Blender 4.2.1 LTS
# www.blender.org
o Plane
v 3.325683 0.000000 5.259453
v 3.325683 0.000000 -5.259453
v -5.259453 8.746952 5.259453
v -5.259453 8.746952 -5.259453
v -4.623366 0.000000 5.259453
v -5.259453 0.636087 5.259453
v -4.941410 0.085220 5.259453
v -5.174234 0.318044 5.259453
v -5.259453 0.636087 -5.259453
v -4.623366 0.000000 -5.259453
v -5.174234 0.318044 -5.259453
v -4.941410 0.085220 -5.259453
vn -0.0000 1.0000 -0.0000
vn 1.0000 -0.0000 -0.0000
vn 0.1305 0.9914 -0.0000
vn 0.9914 0.1305 -0.0000
vn 0.5000 0.8660 -0.0000
vn 0.8660 0.5000 -0.0000
vt 0.060471 0.000000
vt 1.000000 0.000000
vt 1.000000 1.000000
vt 0.060471 1.000000
vt 0.000000 1.000000
vt 0.000000 0.000000
vt 0.030235 0.000000
vt 0.030235 1.000000
s 1
f 5/1/3 1/2/1 2/3/1 10/4/3
f 9/5/4 6/6/4 8/6/6 11/5/6
f 11/5/6 8/6/6 7/7/5 12/8/5
f 12/8/5 7/7/5 5/1/3 10/4/3
f 6/6/4 9/5/4 4/5/2 3/6/2
