# Blender 4.0.2
# www.blender.org
o Cylinder.005
v -4.098701 1.734312 -0.243013
v -3.631124 1.736766 -0.302103
v -4.098701 1.646325 -0.219437
v -3.631124 1.621931 -0.271333
v -4.098701 1.581914 -0.155026
v -3.631124 1.537866 -0.187269
v -4.098701 1.558338 -0.067039
v -3.631124 1.507096 -0.072434
v -4.098701 1.581914 0.020947
v -3.631124 1.537866 0.042401
v -4.098701 1.646325 0.085358
v -3.631124 1.621931 0.126466
v -4.098701 1.734312 0.108934
v -3.631124 1.736766 0.157236
v -4.098701 1.822298 0.085358
v -3.631124 1.851601 0.126466
v -4.098701 1.886709 0.020947
v -3.631124 1.935666 0.042401
v -4.098701 1.910285 -0.067039
v -3.631124 1.966435 -0.072434
v -4.098701 1.886709 -0.155026
v -3.631124 1.935666 -0.187269
v -4.098701 1.822298 -0.219437
v -3.631124 1.851601 -0.271333
v -4.090464 1.736766 -0.302103
v -4.090464 1.621931 -0.271333
v -4.090464 1.537866 -0.187269
v -4.090464 1.507096 -0.072434
v -4.090464 1.537866 0.042401
v -4.090464 1.621931 0.126466
v -4.090464 1.736766 0.157236
v -4.090464 1.851601 0.126466
v -4.090464 1.935665 0.042401
v -4.090464 1.966435 -0.072434
v -4.090464 1.935665 -0.187269
v -4.090464 1.851601 -0.271333
v -6.600306 1.734311 -0.243012
v -6.600306 1.646324 -0.219437
v -6.600306 1.581914 -0.155026
v -6.600306 1.558338 -0.067039
v -6.600306 1.581914 0.020948
v -6.600306 1.646324 0.085359
v -6.600306 1.734311 0.108935
v -6.600306 1.822298 0.085359
v -6.600306 1.886709 0.020948
v -6.600306 1.910285 -0.067039
v -6.600306 1.886709 -0.155026
v -6.600306 1.822298 -0.219437
v -6.592069 1.736766 -0.277354
v -6.592069 1.634305 -0.249900
v -6.592069 1.559299 -0.174894
v -6.592069 1.531845 -0.072433
v -6.592069 1.559299 0.030027
v -6.592069 1.634305 0.105033
v -6.592069 1.736766 0.132487
v -6.592069 1.839226 0.105033
v -6.592069 1.914232 0.030027
v -6.592069 1.941686 -0.072433
v -6.592069 1.914232 -0.174894
v -6.592069 1.839226 -0.249900
v -7.080547 1.736765 -0.243624
v -7.080547 1.651170 -0.220689
v -7.080547 1.588510 -0.158029
v -7.080547 1.565574 -0.072433
v -7.080547 1.588510 0.013162
v -7.080547 1.651170 0.075823
v -7.080547 1.736765 0.098758
v -7.080547 1.822361 0.075823
v -7.080547 1.885021 0.013162
v -7.080547 1.907956 -0.072433
v -7.080547 1.885021 -0.158029
v -7.080547 1.822361 -0.220689
v -7.080547 1.736765 -0.277354
v -7.080547 1.634305 -0.249899
v -7.080547 1.559299 -0.174893
v -7.080547 1.531845 -0.072433
v -7.080547 1.559299 0.030027
v -7.080547 1.634305 0.105033
v -7.080547 1.736765 0.132487
v -7.080547 1.839226 0.105033
v -7.080547 1.914232 0.030027
v -7.080547 1.941686 -0.072433
v -7.080547 1.914232 -0.174893
v -7.080547 1.839226 -0.249899
v -6.853580 1.736766 -0.243624
v -6.853580 1.651170 -0.220689
v -6.853580 1.588510 -0.158029
v -6.853580 1.565574 -0.072433
v -6.853580 1.588510 0.013162
v -6.853580 1.651170 0.075823
v -6.853580 1.736766 0.098758
v -6.853580 1.822361 0.075823
v -6.853580 1.885021 0.013162
v -6.853580 1.907957 -0.072433
v -6.853580 1.885021 -0.158029
v -6.853580 1.822361 -0.220689
v -3.105814 2.109907 -0.446514
v -3.105813 2.109906 0.299768
v -2.919243 2.059915 -0.446514
v -2.919243 2.059915 0.299768
v -2.782664 1.923336 -0.446514
v -2.782664 1.923336 0.299768
v -2.732673 1.736766 -0.446514
v -2.732673 1.736766 0.299768
v -3.347407 1.736766 -0.446514
v -3.347406 1.736766 0.299768
v -3.347407 1.993036 -0.446514
v -3.347406 1.993036 0.299768
v -3.105813 2.109907 -0.073373
v -2.919243 2.059915 -0.073373
v -2.782664 1.923336 -0.073373
v -2.732673 1.736766 -0.073373
v -3.347406 1.993036 0.113197
v -3.347407 1.993036 -0.073373
v -3.347407 1.993036 -0.259943
v -3.292384 2.044358 0.113197
v -3.292384 2.044358 -0.073373
v -3.292384 2.044358 -0.259943
v -3.105813 1.363625 -0.446514
v -3.105813 1.363625 0.299768
v -2.919243 1.413617 -0.446514
v -2.919243 1.413617 0.299768
v -2.782664 1.550196 -0.446514
v -2.782664 1.550196 0.299768
v -3.347407 1.480496 -0.446514
v -3.347406 1.480496 0.299768
v -3.105813 1.363625 -0.073373
v -2.919243 1.413617 -0.073373
v -2.782664 1.550196 -0.073373
v -3.347406 1.480496 0.113197
v -3.347406 1.480496 -0.073373
v -3.347406 1.480496 -0.259943
v -3.292384 1.429174 0.113197
v -3.292384 1.429174 -0.073373
v -3.292384 1.429174 -0.259943
vn -0.0000 -0.0000 -1.0000
vn -0.0000 -0.5000 -0.8660
vn -0.0000 -0.8660 -0.5000
vn -0.0000 -1.0000 -0.0000
vn -0.0000 -0.8660 0.5000
vn -0.0000 -0.5000 0.8660
vn -0.0000 -0.0000 1.0000
vn -0.0000 0.5000 0.8660
vn -0.0000 0.8660 0.5000
vn -0.0000 1.0000 -0.0000
vn -0.0000 0.8660 -0.5000
vn -0.0000 0.5000 -0.8660
vn -0.9897 -0.0737 -0.1225
vn -0.9904 -0.0012 -0.1381
vn -0.9904 0.0008 -0.1380
vn -0.9898 -0.0699 -0.1242
vn -0.9886 -0.1320 -0.0722
vn -0.9887 -0.1287 -0.0768
vn -0.9873 -0.1591 0.0036
vn -0.9874 -0.1585 -0.0022
vn -0.9861 -0.1428 0.0854
vn -0.9861 -0.1446 0.0817
vn -0.9855 -0.0845 0.1473
vn -0.9855 -0.0851 0.1469
vn -0.9858 -0.0018 0.1682
vn -0.9858 0.0011 0.1681
vn -0.9868 0.0782 0.1420
vn -0.9869 0.0825 0.1389
vn -0.9881 0.1312 0.0800
vn -0.9882 0.1336 0.0746
vn -0.9894 0.1454 0.0030
vn -0.9894 0.1450 -0.0018
vn -0.9902 0.1217 -0.0682
vn -0.9902 0.1201 -0.0706
vn -0.9906 0.0687 -0.1184
vn -0.9906 0.0683 -0.1187
vn 0.9724 0.0035 0.2335
vn 0.9689 0.1304 0.2105
vn 0.9693 0.1188 0.2152
vn 0.9724 -0.0022 0.2331
vn 0.9509 -0.1445 -0.2738
vn 0.9596 -0.2375 -0.1508
vn 0.9607 -0.2439 -0.1323
vn 0.9520 -0.1594 -0.2614
vn 0.9459 0.2762 -0.1702
vn 0.9416 0.1668 -0.2923
vn 0.9417 0.1692 -0.2909
vn 0.9466 0.2821 -0.1562
vn 0.9732 -0.1157 0.1989
vn 0.9732 -0.1146 0.1995
vn 0.9626 0.2401 0.1258
vn 0.9635 0.2283 0.1397
vn 0.9668 -0.2552 -0.0091
vn 0.9675 -0.2528 0.0056
vn 0.9437 0.0069 -0.3308
vn 0.9441 -0.0043 -0.3297
vn 0.9541 0.2992 -0.0123
vn 0.9553 0.2955 0.0076
vn 0.9714 -0.2082 0.1143
vn 0.9716 -0.2034 0.1210
vn -1.0000 -0.0000 -0.0000
vn 0.5000 0.8660 -0.0000
vn 0.8660 0.5000 -0.0000
vn -0.0805 0.9965 -0.0241
vn -0.4863 0.8731 -0.0352
vn -0.5178 0.8555 -0.0000
vn -0.0380 0.9993 -0.0000
vn -0.4863 0.8731 0.0352
vn -0.0805 0.9965 0.0241
vn -0.5913 0.8051 0.0471
vn -0.4911 0.8661 0.0934
vn -0.5913 0.8051 -0.0471
vn -0.6821 0.7313 -0.0000
vn -0.4911 0.8661 -0.0934
vn 1.0000 -0.0000 -0.0000
vn 0.5000 -0.8660 -0.0000
vn 0.8660 -0.5000 -0.0000
vn -0.0805 -0.9965 -0.0241
vn -0.0380 -0.9993 -0.0000
vn -0.5178 -0.8555 -0.0000
vn -0.4863 -0.8731 -0.0352
vn -0.4863 -0.8731 0.0352
vn -0.0805 -0.9965 0.0241
vn -0.4911 -0.8661 0.0934
vn -0.5913 -0.8051 0.0471
vn -0.5913 -0.8051 -0.0471
vn -0.6821 -0.7313 -0.0000
vn -0.4911 -0.8661 -0.0934
vn -0.4210 -0.8662 -0.2691
vn -0.3145 -0.9278 -0.2006
vn -0.2848 -0.9413 -0.1815
vn -0.1588 -0.9873 -0.0002
vn -0.1588 -0.9873 0.0002
vn -0.3129 -0.9284 0.2004
vn -0.2841 -0.9414 0.1818
vn -0.4195 -0.8669 0.2693
vn -0.1887 -0.0271 0.9817
vn -0.2585 -0.0000 0.9660
vn -0.4999 -0.0000 0.8661
vn -0.4987 -0.0716 0.8638
vn -0.1887 0.0271 0.9817
vn -0.4987 0.0716 0.8638
vn -0.4195 0.8669 0.2693
vn -0.3129 0.9284 0.2004
vn -0.2841 0.9414 0.1818
vn -0.1588 0.9873 -0.0002
vn -0.1588 0.9873 0.0002
vn -0.3145 0.9278 -0.2006
vn -0.2848 0.9413 -0.1815
vn -0.4210 0.8662 -0.2691
vn -0.1906 0.0271 -0.9813
vn -0.2608 -0.0000 -0.9654
vn -0.5042 -0.0000 -0.8636
vn -0.5029 0.0714 -0.8614
vn -0.1906 -0.0271 -0.9813
vn -0.5029 -0.0714 -0.8614
vt 1.000000 0.500000
vt 1.000000 1.000000
vt 0.916667 1.000000
vt 0.916667 0.500000
vt 0.833333 1.000000
vt 0.833333 0.500000
vt 0.750000 1.000000
vt 0.750000 0.500000
vt 0.666667 1.000000
vt 0.666667 0.500000
vt 0.583333 1.000000
vt 0.583333 0.500000
vt 0.500000 1.000000
vt 0.500000 0.500000
vt 0.416667 1.000000
vt 0.416667 0.500000
vt 0.333333 1.000000
vt 0.333333 0.500000
vt 0.250000 1.000000
vt 0.250000 0.500000
vt 0.166667 1.000000
vt 0.166667 0.500000
vt 0.083333 1.000000
vt 0.083333 0.500000
vt 0.000000 1.000000
vt 0.000000 0.500000
vt 0.658056 0.090748
vt 0.590748 0.158056
vt 0.841944 0.409252
vt 0.750000 0.433889
vt 0.750000 0.490000
vt 0.870000 0.457846
vt 0.909252 0.341944
vt 0.957846 0.370000
vt 0.933889 0.250000
vt 0.990000 0.250000
vt 0.909252 0.158056
vt 0.957846 0.130000
vt 0.841944 0.090748
vt 0.870000 0.042154
vt 0.750000 0.066111
vt 0.750000 0.010000
vt 0.630000 0.042154
vt 0.542154 0.130000
vt 0.566111 0.250000
vt 0.510000 0.250000
vt 0.590748 0.341944
vt 0.542154 0.370000
vt 0.658056 0.409252
vt 0.630000 0.457846
vt 0.750000 0.403621
vt 0.826811 0.383040
vt 0.883040 0.326811
vt 0.903621 0.250000
vt 0.883040 0.173189
vt 0.826811 0.116960
vt 0.750000 0.096379
vt 0.673189 0.116960
vt 0.616960 0.173189
vt 0.596379 0.250000
vt 0.616960 0.326811
vt 0.673189 0.383040
vt 0.916667 0.750000
vt 0.833333 0.750000
vt 0.083333 0.625000
vt 0.083333 0.750000
vt 0.000000 0.750000
vt 0.083333 0.875000
vt 0.166667 0.875000
vt 0.166667 0.625000
vt 0.166667 0.750000
vt 0.750000 0.750000
vt 1.000000 0.750000
s 1
f 25/1/1 2/2/1 4/3/2 26/4/2
f 26/4/2 4/3/2 6/5/3 27/6/3
f 27/6/3 6/5/3 8/7/4 28/8/4
f 28/8/4 8/7/4 10/9/5 29/10/5
f 29/10/5 10/9/5 12/11/6 30/12/6
f 30/12/6 12/11/6 14/13/7 31/14/7
f 31/14/7 14/13/7 16/15/8 32/16/8
f 32/16/8 16/15/8 18/17/9 33/18/9
f 33/18/9 18/17/9 20/19/10 34/20/10
f 34/20/10 20/19/10 22/21/11 35/22/11
f 35/22/11 22/21/11 24/23/12 36/24/12
f 36/24/12 24/23/12 2/25/1 25/26/1
f 15/27/8 17/28/9 45/28/9 44/27/8
f 3/29/13 1/30/14 25/31/15 26/32/16
f 5/33/17 3/29/13 26/32/16 27/34/18
f 7/35/19 5/33/17 27/34/18 28/36/20
f 9/37/21 7/35/19 28/36/20 29/38/22
f 11/39/23 9/37/21 29/38/22 30/40/24
f 13/41/25 11/39/23 30/40/24 31/42/26
f 15/27/27 13/41/25 31/42/26 32/43/28
f 17/28/29 15/27/27 32/43/28 33/44/30
f 19/45/31 17/28/29 33/44/30 34/46/32
f 21/47/33 19/45/31 34/46/32 35/48/34
f 23/49/35 21/47/33 35/48/34 36/50/36
f 1/30/14 23/49/35 36/50/36 25/31/15
f 37/30/37 38/29/38 50/29/39 49/30/40
f 9/37/5 11/39/6 42/39/6 41/37/5
f 23/49/12 1/30/1 37/30/1 48/49/12
f 3/29/2 5/33/3 39/33/3 38/29/2
f 17/28/9 19/45/10 46/45/10 45/28/9
f 11/39/6 13/41/7 43/41/7 42/39/6
f 5/33/3 7/35/4 40/35/4 39/33/3
f 19/45/10 21/47/11 47/47/11 46/45/10
f 13/41/7 15/27/8 44/27/8 43/41/7
f 7/35/4 9/37/5 41/37/5 40/35/4
f 21/47/11 23/49/12 48/49/12 47/47/11
f 1/30/1 3/29/2 38/29/2 37/30/1
f 59/47/11 60/49/12 84/49/12 83/47/11
f 44/27/41 45/28/42 57/28/43 56/27/44
f 41/37/45 42/39/46 54/39/47 53/37/48
f 48/49/49 37/30/37 49/30/40 60/49/50
f 38/29/38 39/33/51 51/33/52 50/29/39
f 45/28/42 46/45/53 58/45/54 57/28/43
f 42/39/46 43/41/55 55/41/56 54/39/47
f 39/33/51 40/35/57 52/35/58 51/33/52
f 46/45/53 47/47/59 59/47/60 58/45/54
f 43/41/55 44/27/41 56/27/44 55/41/56
f 40/35/57 41/37/45 53/37/48 52/35/58
f 47/47/59 48/49/49 60/49/50 59/47/60
f 61/51/7 62/52/8 86/52/8 85/51/7
f 49/30/1 50/29/2 74/29/2 73/30/1
f 56/27/8 57/28/9 81/28/9 80/27/8
f 53/37/5 54/39/6 78/39/6 77/37/5
f 60/49/12 49/30/1 73/30/1 84/49/12
f 50/29/2 51/33/3 75/33/3 74/29/2
f 57/28/9 58/45/10 82/45/10 81/28/9
f 54/39/6 55/41/7 79/41/7 78/39/6
f 51/33/3 52/35/4 76/35/4 75/33/3
f 58/45/10 59/47/11 83/47/11 82/45/10
f 55/41/7 56/27/8 80/27/8 79/41/7
f 52/35/4 53/37/5 77/37/5 76/35/4
f 62/52/61 61/51/61 73/30/61 74/29/61
f 63/53/61 62/52/61 74/29/61 75/33/61
f 64/54/61 63/53/61 75/33/61 76/35/61
f 65/55/61 64/54/61 76/35/61 77/37/61
f 66/56/61 65/55/61 77/37/61 78/39/61
f 67/57/61 66/56/61 78/39/61 79/41/61
f 68/58/61 67/57/61 79/41/61 80/27/61
f 69/59/61 68/58/61 80/27/61 81/28/61
f 70/60/61 69/59/61 81/28/61 82/45/61
f 71/61/61 70/60/61 82/45/61 83/47/61
f 72/62/61 71/61/61 83/47/61 84/49/61
f 61/51/61 72/62/61 84/49/61 73/30/61
f 85/51/61 86/52/61 87/53/61 88/54/61 89/55/61 90/56/61 91/57/61 92/58/61 93/59/61 94/60/61 95/61/61 96/62/61
f 68/58/2 69/59/3 93/59/3 92/58/2
f 65/55/11 66/56/12 90/56/12 89/55/11
f 72/62/6 61/51/7 85/51/7 96/62/6
f 62/52/8 63/53/9 87/53/9 86/52/8
f 69/59/3 70/60/4 94/60/4 93/59/3
f 66/56/12 67/57/1 91/57/1 90/56/12
f 63/53/9 64/54/10 88/54/10 87/53/9
f 70/60/4 71/61/5 95/61/5 94/60/4
f 67/57/1 68/58/2 92/58/2 91/57/1
f 64/54/10 65/55/11 89/55/11 88/54/10
f 71/61/5 72/62/6 96/62/6 95/61/5
f 99/4/62 110/63/62 111/64/63 101/6/63
f 97/26/64 118/65/65 117/66/66 109/67/67
f 116/68/68 98/25/69 109/67/67 117/66/66
f 98/25/69 116/68/68 113/69/70 108/21/71
f 115/70/72 114/71/73 117/66/66 118/65/65
f 114/71/73 113/69/70 116/68/68 117/66/66
f 118/65/65 97/26/64 107/22/74 115/70/72
f 101/6/63 111/64/63 112/72/75 103/8/75
f 111/64/63 102/5/63 104/7/75 112/72/75
f 110/63/62 100/3/62 102/5/63 111/64/63
f 109/73/67 98/2/69 100/3/62 110/63/62
f 97/1/64 109/73/67 110/63/62 99/4/62
f 121/4/76 123/6/77 129/64/77 128/63/76
f 119/26/78 127/67/79 134/66/80 135/65/81
f 133/68/82 134/66/80 127/67/79 120/25/83
f 120/25/83 126/21/84 130/69/85 133/68/82
f 132/70/86 135/65/81 134/66/80 131/71/87
f 131/71/87 134/66/80 133/68/82 130/69/85
f 135/65/81 132/70/86 125/22/88 119/26/78
f 123/6/77 103/8/75 112/72/75 129/64/77
f 129/64/77 112/72/75 104/7/75 124/5/77
f 128/63/76 129/64/77 124/5/77 122/3/76
f 127/73/79 128/63/76 122/3/76 120/2/83
f 119/1/78 121/4/76 128/63/76 127/73/79
f 125/22/89 132/70/90 6/5/91 4/3/89
f 132/70/90 131/71/92 8/7/93 6/5/91
f 131/71/92 130/69/94 10/9/95 8/7/93
f 130/69/94 126/21/96 12/11/96 10/9/95
f 126/21/97 106/21/98 14/13/99 12/11/100
f 106/21/98 108/21/101 16/15/102 14/13/99
f 108/21/103 113/69/104 18/17/105 16/15/103
f 113/69/104 114/71/106 20/19/107 18/17/105
f 114/71/106 115/70/108 22/21/109 20/19/107
f 115/70/108 107/22/110 24/23/110 22/21/109
f 107/22/111 105/22/112 2/25/113 24/23/114
f 105/22/112 125/22/115 4/3/116 2/2/113
f 98/25/7 108/21/101 106/21/98 126/21/97 120/25/7 122/3/7 124/5/7 104/7/7 102/5/7 100/3/7
f 99/4/1 101/6/1 103/8/1 123/6/1 121/4/1 119/1/1 125/22/115 105/22/112 107/22/111 97/26/1
